<?xml version="1.0" encoding="utf-8"?>
<!-- Generator: Adobe Illustrator 17.0.0, SVG Export Plug-In . SVG Version: 6.00 Build 0)  -->
<!DOCTYPE svg PUBLIC "-//W3C//DTD SVG 1.1//EN" "http://www.w3.org/Graphics/SVG/1.1/DTD/svg11.dtd">
<svg version="1.1" xmlns="http://www.w3.org/2000/svg" xmlns:xlink="http://www.w3.org/1999/xlink" x="0px" y="0px"
	 width="273.05px" height="265.957px" viewBox="0 0 273.05 265.957" enable-background="new 0 0 273.05 265.957"
	 xml:space="preserve">
<g id="Layer_1">
</g>
<g id="Layer_2">
</g>
<g id="Layer_3">
	<g>
		<g>
			<defs>
				<circle id="SVGID_1_" cx="136.525" cy="132.979" r="123.404"/>
			</defs>
			<clipPath id="SVGID_2_">
				<use xlink:href="#SVGID_1_"  overflow="visible"/>
			</clipPath>
			
				<rect x="-8.648" y="-3.014" clip-path="url(#SVGID_2_)" fill="#006F7C" stroke="#FFC965" stroke-width="5" stroke-miterlimit="10" width="282.979" height="265.957"/>
			<use xlink:href="#SVGID_1_"  overflow="visible" fill="none" stroke="#FFC965" stroke-width="5" stroke-miterlimit="10"/>
		</g>
		<g>
			<path fill="#FFC965" d="M100.825,108.802c2.635-0.54,7.431-0.945,12.092-0.945c6.147,0,9.93,0.743,13.037,2.904
				c2.837,1.689,4.729,4.661,4.729,8.512c0,4.188-2.634,8.039-7.565,9.862v0.135c4.796,1.216,9.187,4.999,9.187,11.281
				c0,4.053-1.756,7.228-4.391,9.39c-3.242,2.837-8.579,4.255-16.888,4.255c-4.593,0-8.106-0.337-10.2-0.607V108.802z
				 M109.066,126.771h4.256c5.742,0,8.984-2.702,8.984-6.553c0-4.255-3.243-6.214-8.512-6.214c-2.432,0-3.85,0.135-4.729,0.338
				V126.771z M109.066,147.711c1.081,0.135,2.5,0.202,4.391,0.202c5.336,0,10.065-2.026,10.065-7.633
				c0-5.269-4.593-7.43-10.335-7.43h-4.121V147.711z"/>
			<path fill="#FFC965" d="M139.733,108.194h8.242v20.941h0.203c1.08-1.756,2.229-3.377,3.31-4.931l11.889-16.01h10.268
				l-15.671,19.387l16.685,26.142h-9.728l-12.902-20.873l-4.053,4.864v16.009h-8.242V108.194z"/>
		</g>
		<rect x="113.012" y="64.624" fill="#FFC965" width="47.026" height="6.028"/>
		<rect x="113.012" y="198.135" fill="#FFC965" width="47.026" height="6.028"/>
	</g>
</g>
</svg>
